<svg width="160" height="40" viewBox="0 0 160 40" fill="none" xmlns="http://www.w3.org/2000/svg">
  <rect x="0" y="0" width="40" height="40" rx="4" fill="#2563EB"/>
  <path d="M10 30V10H20L30 20L20 30H10Z" fill="white"/>
  <path d="M50 15H55L60 30H55L54 27H51L50 30H45L50 15ZM53.5 23L52.5 19L51.5 23H53.5Z" fill="#1E293B"/>
  <path d="M62 15H67V25C67 25.5 67.1667 25.9167 67.5 26.25C67.8333 26.5833 68.25 26.75 68.75 26.75C69.25 26.75 69.6667 26.5833 70 26.25C70.3333 25.9167 70.5 25.5 70.5 25V15H75.5V25C75.5 26.6667 75 28 74 29C73 30 71.6667 30.5 70 30.5C68.3333 30.5 67 30 66 29C65 28 64.5 26.6667 64.5 25V15H62Z" fill="#1E293B"/>
  <path d="M78 15H83V20.5H88.5V15H93.5V30H88.5V24.5H83V30H78V15Z" fill="#1E293B"/>
  <path d="M96 15H101V30H96V15Z" fill="#1E293B"/>
  <path d="M103 15H109.5C111.5 15 113.083 15.6667 114.25 17C115.417 18.3333 116 20 116 22C116 24 115.417 25.6667 114.25 27C113.083 28.3333 111.5 29 109.5 29H103V15ZM109 25C109.833 25 110.5 24.75 111 24.25C111.5 23.75 111.75 23 111.75 22C111.75 21 111.5 20.25 111 19.75C110.5 19.25 109.833 19 109 19H108V25H109Z" fill="#1E293B"/>
</svg>
